<svg width="10" height="15" viewBox="0 0 10 15" fill="none" xmlns="http://www.w3.org/2000/svg">
<path fill-rule="evenodd" clip-rule="evenodd" d="M1.21985 5.159C1.36047 5.01855 1.5511 4.93966 1.74985 4.93966C1.9486 4.93966 2.13922 5.01855 2.27985 5.159L4.24985 7.129L4.24985 0.75C4.24985 0.551087 4.32887 0.360323 4.46952 0.219671C4.61017 0.0790182 4.80094 -3.68716e-07 4.99985 -3.51327e-07C5.19876 -3.33937e-07 5.38953 0.0790183 5.53018 0.219671C5.67083 0.360324 5.74985 0.551087 5.74985 0.75L5.74985 7.129L7.71985 5.159C7.78851 5.08531 7.87131 5.02621 7.96331 4.98522C8.05531 4.94423 8.15462 4.92219 8.25532 4.92041C8.35603 4.91863 8.45606 4.93716 8.54944 4.97488C8.64283 5.0126 8.72767 5.06874 8.79889 5.13996C8.8701 5.21118 8.92625 5.29601 8.96397 5.3894C9.00169 5.48279 9.02022 5.58282 9.01844 5.68352C9.01666 5.78423 8.99462 5.88354 8.95363 5.97554C8.91264 6.06754 8.85353 6.15034 8.77985 6.219L5.52985 9.469L4.99985 10L4.46985 9.47L1.21985 6.22C1.15015 6.15035 1.09486 6.06765 1.05714 5.97662C1.01942 5.8856 1.00001 5.78803 1.00001 5.6895C1.00001 5.59097 1.01942 5.4934 1.05714 5.40238C1.09486 5.31135 1.15015 5.22865 1.21985 5.159Z" fill="#333333"/>
<path d="M1.07776 11.6315L1.34166 11.8361C3.49706 13.5077 6.50872 13.5151 8.6723 11.8541L8.96231 11.6315" stroke="#333333" stroke-linecap="round"/>
</svg>
